<mxfile host="Electron" modified="2024-06-03T20:52:55.567Z" agent="Mozilla/5.0 (Windows NT 10.0; Win64; x64) AppleWebKit/537.36 (KHTML, like Gecko) draw.io/24.4.8 Chrome/124.0.6367.207 Electron/30.0.6 Safari/537.36" etag="53UEGQZ01_owzt-NxEnY" version="24.4.8" type="device">
  <diagram name="Page-1" id="929967ad-93f9-6ef4-fab6-5d389245f69c">
    <mxGraphModel dx="1969" dy="984" grid="1" gridSize="10" guides="1" tooltips="1" connect="1" arrows="1" fold="1" page="1" pageScale="1.5" pageWidth="1169" pageHeight="826" background="none" math="0" shadow="0">
      <root>
        <mxCell id="0" style=";html=1;" />
        <mxCell id="1" style=";html=1;" parent="0" />
        <mxCell id="70UsVCBj1zNhbwoqPsC8-2" value="&lt;p style=&quot;margin:0px;margin-top:4px;margin-left:10px;text-align:left;&quot;&gt;&lt;b&gt;UC [Use case diagram] Robot Soccer&lt;/b&gt;&lt;/p&gt;" style="html=1;shape=mxgraph.sysml.package;html=1;overflow=fill;whiteSpace=wrap;labelX=233.19;" vertex="1" parent="1">
          <mxGeometry x="420" y="210" width="600" height="760" as="geometry" />
        </mxCell>
        <mxCell id="70UsVCBj1zNhbwoqPsC8-3" value="&lt;p&gt;&amp;lt;&amp;lt;actor&amp;gt;&amp;gt;&lt;br&gt;&lt;b&gt;Intelligence Articielle&lt;/b&gt;&lt;/p&gt;" style="shape=rect;html=1;overflow=fill;whiteSpace=wrap;align=center;" vertex="1" parent="1">
          <mxGeometry x="170" y="550" width="160" height="80" as="geometry" />
        </mxCell>
        <mxCell id="70UsVCBj1zNhbwoqPsC8-6" value="&lt;p&gt;&amp;lt;&amp;lt;actor&amp;gt;&amp;gt;&lt;br&gt;&lt;b&gt;Robot adverse&lt;/b&gt;&lt;/p&gt;" style="shape=rect;html=1;overflow=fill;whiteSpace=wrap;align=center;" vertex="1" parent="1">
          <mxGeometry x="1080" y="510" width="160" height="80" as="geometry" />
        </mxCell>
        <mxCell id="70UsVCBj1zNhbwoqPsC8-8" value="Se déplacer sur le terrain" style="shape=ellipse;html=1;strokeWidth=3;fontStyle=1;whiteSpace=wrap;align=center;perimeter=ellipsePerimeter;" vertex="1" parent="1">
          <mxGeometry x="470" y="750" width="140" height="70" as="geometry" />
        </mxCell>
        <mxCell id="70UsVCBj1zNhbwoqPsC8-11" value="Faire la passe à son coéquipier" style="shape=ellipse;html=1;strokeWidth=3;fontStyle=1;whiteSpace=wrap;align=center;perimeter=ellipsePerimeter;" vertex="1" parent="1">
          <mxGeometry x="820" y="230" width="150" height="80" as="geometry" />
        </mxCell>
        <mxCell id="70UsVCBj1zNhbwoqPsC8-12" value="Ne pas sortir des limites du terrain" style="shape=ellipse;html=1;strokeWidth=3;fontStyle=1;whiteSpace=wrap;align=center;perimeter=ellipsePerimeter;" vertex="1" parent="1">
          <mxGeometry x="760" y="870" width="120" height="60" as="geometry" />
        </mxCell>
        <mxCell id="70UsVCBj1zNhbwoqPsC8-13" value="Déplacer la balle" style="shape=ellipse;html=1;strokeWidth=3;fontStyle=1;whiteSpace=wrap;align=center;perimeter=ellipsePerimeter;" vertex="1" parent="1">
          <mxGeometry x="620" y="630" width="160" height="60" as="geometry" />
        </mxCell>
        <mxCell id="70UsVCBj1zNhbwoqPsC8-14" value="Intercepter la balle" style="shape=ellipse;html=1;strokeWidth=3;fontStyle=1;whiteSpace=wrap;align=center;perimeter=ellipsePerimeter;" vertex="1" parent="1">
          <mxGeometry x="790" y="750" width="120" height="60" as="geometry" />
        </mxCell>
        <mxCell id="70UsVCBj1zNhbwoqPsC8-15" value="Tirer dans les cages" style="shape=ellipse;html=1;strokeWidth=3;fontStyle=1;whiteSpace=wrap;align=center;perimeter=ellipsePerimeter;" vertex="1" parent="1">
          <mxGeometry x="760" y="370" width="140" height="70" as="geometry" />
        </mxCell>
        <mxCell id="70UsVCBj1zNhbwoqPsC8-16" value="Tirer la balle" style="shape=ellipse;html=1;strokeWidth=3;fontStyle=1;whiteSpace=wrap;align=center;perimeter=ellipsePerimeter;" vertex="1" parent="1">
          <mxGeometry x="460" y="390" width="120" height="60" as="geometry" />
        </mxCell>
        <mxCell id="70UsVCBj1zNhbwoqPsC8-17" value="Tromper l&#39;adversaire" style="shape=ellipse;html=1;strokeWidth=3;fontStyle=1;whiteSpace=wrap;align=center;perimeter=ellipsePerimeter;" vertex="1" parent="1">
          <mxGeometry x="830" y="520" width="150" height="60" as="geometry" />
        </mxCell>
        <mxCell id="70UsVCBj1zNhbwoqPsC8-22" value="&amp;lt;&amp;lt;extend&amp;gt;&amp;gt;" style="edgeStyle=none;html=1;startArrow=open;endArrow=none;startSize=12;verticalAlign=bottom;dashed=1;labelBackgroundColor=none;rounded=0;" edge="1" parent="1" source="70UsVCBj1zNhbwoqPsC8-13" target="70UsVCBj1zNhbwoqPsC8-8">
          <mxGeometry width="160" relative="1" as="geometry">
            <mxPoint x="880" y="480" as="sourcePoint" />
            <mxPoint x="1040" y="480" as="targetPoint" />
          </mxGeometry>
        </mxCell>
        <mxCell id="70UsVCBj1zNhbwoqPsC8-25" value="" style="edgeStyle=none;html=1;endArrow=none;verticalAlign=bottom;rounded=0;exitX=1.014;exitY=0.413;exitDx=0;exitDy=0;exitPerimeter=0;" edge="1" parent="1" source="70UsVCBj1zNhbwoqPsC8-3" target="70UsVCBj1zNhbwoqPsC8-16">
          <mxGeometry width="160" relative="1" as="geometry">
            <mxPoint x="880" y="480" as="sourcePoint" />
            <mxPoint x="1040" y="480" as="targetPoint" />
          </mxGeometry>
        </mxCell>
        <mxCell id="70UsVCBj1zNhbwoqPsC8-26" value="" style="edgeStyle=none;html=1;endArrow=none;verticalAlign=bottom;rounded=0;exitX=1;exitY=0.5;exitDx=0;exitDy=0;" edge="1" parent="1" source="70UsVCBj1zNhbwoqPsC8-3" target="70UsVCBj1zNhbwoqPsC8-8">
          <mxGeometry width="160" relative="1" as="geometry">
            <mxPoint x="260" y="539" as="sourcePoint" />
            <mxPoint x="567" y="689" as="targetPoint" />
          </mxGeometry>
        </mxCell>
        <mxCell id="70UsVCBj1zNhbwoqPsC8-27" value="&amp;lt;&amp;lt;extend&amp;gt;&amp;gt;" style="edgeStyle=none;html=1;startArrow=open;endArrow=none;startSize=12;verticalAlign=bottom;dashed=1;labelBackgroundColor=none;rounded=0;entryX=1;entryY=0;entryDx=0;entryDy=0;" edge="1" parent="1" source="70UsVCBj1zNhbwoqPsC8-17" target="70UsVCBj1zNhbwoqPsC8-13">
          <mxGeometry width="160" relative="1" as="geometry">
            <mxPoint x="880" y="640" as="sourcePoint" />
            <mxPoint x="1040" y="640" as="targetPoint" />
          </mxGeometry>
        </mxCell>
        <mxCell id="70UsVCBj1zNhbwoqPsC8-28" value="&amp;lt;&amp;lt;include&amp;gt;&amp;gt;" style="edgeStyle=none;html=1;endArrow=open;verticalAlign=bottom;dashed=1;labelBackgroundColor=none;rounded=0;" edge="1" parent="1" source="70UsVCBj1zNhbwoqPsC8-8" target="70UsVCBj1zNhbwoqPsC8-12">
          <mxGeometry width="160" relative="1" as="geometry">
            <mxPoint x="861" y="373" as="sourcePoint" />
            <mxPoint x="965" y="420" as="targetPoint" />
          </mxGeometry>
        </mxCell>
        <mxCell id="70UsVCBj1zNhbwoqPsC8-30" value="&amp;lt;&amp;lt;extend&amp;gt;&amp;gt;" style="edgeStyle=none;html=1;startArrow=open;endArrow=none;startSize=12;verticalAlign=bottom;dashed=1;labelBackgroundColor=none;rounded=0;" edge="1" parent="1" source="70UsVCBj1zNhbwoqPsC8-11" target="70UsVCBj1zNhbwoqPsC8-16">
          <mxGeometry width="160" relative="1" as="geometry">
            <mxPoint x="880" y="640" as="sourcePoint" />
            <mxPoint x="1040" y="640" as="targetPoint" />
          </mxGeometry>
        </mxCell>
        <mxCell id="70UsVCBj1zNhbwoqPsC8-31" value="&amp;lt;&amp;lt;extend&amp;gt;&amp;gt;" style="edgeStyle=none;html=1;startArrow=open;endArrow=none;startSize=12;verticalAlign=bottom;dashed=1;labelBackgroundColor=none;rounded=0;" edge="1" parent="1" source="70UsVCBj1zNhbwoqPsC8-15" target="70UsVCBj1zNhbwoqPsC8-16">
          <mxGeometry width="160" relative="1" as="geometry">
            <mxPoint x="880" y="640" as="sourcePoint" />
            <mxPoint x="1040" y="640" as="targetPoint" />
          </mxGeometry>
        </mxCell>
        <mxCell id="70UsVCBj1zNhbwoqPsC8-32" value="&amp;lt;&amp;lt;include&amp;gt;&amp;gt;" style="edgeStyle=none;html=1;endArrow=open;verticalAlign=bottom;dashed=1;labelBackgroundColor=none;rounded=0;" edge="1" parent="1" source="70UsVCBj1zNhbwoqPsC8-15" target="70UsVCBj1zNhbwoqPsC8-17">
          <mxGeometry width="160" relative="1" as="geometry">
            <mxPoint x="880" y="640" as="sourcePoint" />
            <mxPoint x="1040" y="640" as="targetPoint" />
          </mxGeometry>
        </mxCell>
        <mxCell id="70UsVCBj1zNhbwoqPsC8-34" value="&lt;p&gt;&amp;lt;&amp;lt;actor&amp;gt;&amp;gt;&lt;br&gt;&lt;b&gt;Robot Coéquipier&lt;/b&gt;&lt;/p&gt;" style="shape=rect;html=1;overflow=fill;whiteSpace=wrap;align=center;" vertex="1" parent="1">
          <mxGeometry x="1080" y="220" width="160" height="80" as="geometry" />
        </mxCell>
        <mxCell id="70UsVCBj1zNhbwoqPsC8-35" value="&lt;p&gt;&amp;lt;&amp;lt;actor&amp;gt;&amp;gt;&lt;br&gt;&lt;b&gt;Balle&lt;/b&gt;&lt;/p&gt;" style="shape=rect;html=1;overflow=fill;whiteSpace=wrap;align=center;" vertex="1" parent="1">
          <mxGeometry x="1080" y="650" width="160" height="80" as="geometry" />
        </mxCell>
        <mxCell id="70UsVCBj1zNhbwoqPsC8-36" value="&lt;p&gt;&amp;lt;&amp;lt;actor&amp;gt;&amp;gt;&lt;br&gt;&lt;b&gt;Cages&lt;/b&gt;&lt;/p&gt;" style="shape=rect;html=1;overflow=fill;whiteSpace=wrap;align=center;" vertex="1" parent="1">
          <mxGeometry x="1080" y="360" width="160" height="80" as="geometry" />
        </mxCell>
        <mxCell id="70UsVCBj1zNhbwoqPsC8-37" value="" style="edgeStyle=none;html=1;endArrow=none;verticalAlign=bottom;rounded=0;" edge="1" parent="1" source="70UsVCBj1zNhbwoqPsC8-17" target="70UsVCBj1zNhbwoqPsC8-6">
          <mxGeometry width="160" relative="1" as="geometry">
            <mxPoint x="880" y="640" as="sourcePoint" />
            <mxPoint x="1040" y="640" as="targetPoint" />
          </mxGeometry>
        </mxCell>
        <mxCell id="70UsVCBj1zNhbwoqPsC8-38" value="" style="edgeStyle=none;html=1;endArrow=none;verticalAlign=bottom;rounded=0;" edge="1" parent="1" source="70UsVCBj1zNhbwoqPsC8-11" target="70UsVCBj1zNhbwoqPsC8-34">
          <mxGeometry width="160" relative="1" as="geometry">
            <mxPoint x="880" y="640" as="sourcePoint" />
            <mxPoint x="1040" y="640" as="targetPoint" />
          </mxGeometry>
        </mxCell>
        <mxCell id="70UsVCBj1zNhbwoqPsC8-39" value="" style="edgeStyle=none;html=1;endArrow=none;verticalAlign=bottom;rounded=0;" edge="1" parent="1" source="70UsVCBj1zNhbwoqPsC8-14" target="70UsVCBj1zNhbwoqPsC8-35">
          <mxGeometry width="160" relative="1" as="geometry">
            <mxPoint x="880" y="640" as="sourcePoint" />
            <mxPoint x="1040" y="640" as="targetPoint" />
          </mxGeometry>
        </mxCell>
        <mxCell id="70UsVCBj1zNhbwoqPsC8-40" value="&amp;lt;&amp;lt;extend&amp;gt;&amp;gt;" style="edgeStyle=none;html=1;startArrow=open;endArrow=none;startSize=12;verticalAlign=bottom;dashed=1;labelBackgroundColor=none;rounded=0;" edge="1" parent="1" source="70UsVCBj1zNhbwoqPsC8-14" target="70UsVCBj1zNhbwoqPsC8-8">
          <mxGeometry width="160" relative="1" as="geometry">
            <mxPoint x="791" y="658" as="sourcePoint" />
            <mxPoint x="702" y="744" as="targetPoint" />
          </mxGeometry>
        </mxCell>
        <mxCell id="70UsVCBj1zNhbwoqPsC8-41" value="" style="edgeStyle=none;html=1;endArrow=none;verticalAlign=bottom;rounded=0;" edge="1" parent="1" source="70UsVCBj1zNhbwoqPsC8-15" target="70UsVCBj1zNhbwoqPsC8-36">
          <mxGeometry width="160" relative="1" as="geometry">
            <mxPoint x="880" y="640" as="sourcePoint" />
            <mxPoint x="1040" y="640" as="targetPoint" />
          </mxGeometry>
        </mxCell>
        <mxCell id="70UsVCBj1zNhbwoqPsC8-42" value="" style="edgeStyle=none;html=1;endArrow=none;verticalAlign=bottom;rounded=0;exitX=1;exitY=0.5;exitDx=0;exitDy=0;entryX=0;entryY=0.5;entryDx=0;entryDy=0;" edge="1" parent="1" source="70UsVCBj1zNhbwoqPsC8-13" target="70UsVCBj1zNhbwoqPsC8-35">
          <mxGeometry width="160" relative="1" as="geometry">
            <mxPoint x="880" y="640" as="sourcePoint" />
            <mxPoint x="1040" y="640" as="targetPoint" />
          </mxGeometry>
        </mxCell>
        <mxCell id="70UsVCBj1zNhbwoqPsC8-44" value="&lt;p&gt;&amp;lt;&amp;lt;actor&amp;gt;&amp;gt;&lt;br&gt;&lt;b&gt;Terrain&lt;/b&gt;&lt;/p&gt;" style="shape=rect;html=1;overflow=fill;whiteSpace=wrap;align=center;" vertex="1" parent="1">
          <mxGeometry x="1080" y="800" width="160" height="80" as="geometry" />
        </mxCell>
        <mxCell id="70UsVCBj1zNhbwoqPsC8-46" value="" style="edgeStyle=none;html=1;endArrow=none;verticalAlign=bottom;rounded=0;entryX=0;entryY=0.5;entryDx=0;entryDy=0;" edge="1" parent="1" source="70UsVCBj1zNhbwoqPsC8-12" target="70UsVCBj1zNhbwoqPsC8-44">
          <mxGeometry width="160" relative="1" as="geometry">
            <mxPoint x="880" y="640" as="sourcePoint" />
            <mxPoint x="1040" y="640" as="targetPoint" />
          </mxGeometry>
        </mxCell>
      </root>
    </mxGraphModel>
  </diagram>
</mxfile>
